# xmcd CD database file
#
# Track frame offsets:
#	150
#	32417
#	57610
#	104905
#	135067
#	176952
#	209947
#	247535
#
# Disc length: 3658 seconds
#
# Revision: 0
# Processed by: cddbd v1.4PL0 Copyright (c) Steve Scherf et al.
# Submitted via: CDex 1.50beta10
#
DISCID=720e4808
DTITLE=The Svante Thuresson Quartet - Live
DYEAR=1992
DGENRE=Jazz
TTITLE0=Alone Together
TTITLE1=Skylark
TTITLE2=Falling In Love With Love
TTITLE3=I'm Old Fashioned
TTITLE4=Only Trust Your Heart
TTITLE5=Take The A-Train
TTITLE6=Alice In Wonderland
TTITLE7=All Of You
EXTD=YEAR: 1992
EXTT0=
EXTT1=
EXTT2=
EXTT3=
EXTT4=
EXTT5=
EXTT6=
EXTT7=
PLAYORDER=
